<svg width="227.40493774414062px" height="120.8px" xmlns="http://www.w3.org/2000/svg" viewBox="136.2975311279297 14.600000000000001 227.40493774414062 120.8" style="background: rgba(0, 0, 0, 0);" preserveAspectRatio="xMidYMid"><defs><linearGradient id="editing-outline-gradient" x1="-0.41354545764260087" x2="1.4135454576426008" y1="0.09326335692419985" y2="0.9067366430758002"><stop offset="0" stop-color="#ee4208"></stop><stop offset="1" stop-color="#4139ff"></stop></linearGradient><filter id="editing-outline" x="-100%" y="-100%" width="300%" height="300%"><feMorphology in="SourceGraphic" operator="dilate" radius="1" result="outline"></feMorphology><feComposite operator="out" in="outline" in2="SourceAlpha"></feComposite></filter></defs><g filter="url(#editing-outline)"><g transform="translate(174.70502164959908, 96.98499870300293)"><path d="M26.11-42.69L26.11-42.69L26.11-42.69Q41.79-42.69 41.79-31.62L41.79-31.62L41.79-31.62Q41.79-25.54 37.89-21.89L37.89-21.89L37.89-21.89Q34.05-18.24 27.33-18.24L27.33-18.24L27.33-18.24Q24.19-18.24 21.76-20.03L21.76-20.03L21.76-20.03Q20.61-20.80 19.84-21.82L19.84-21.82L19.84-21.82Q24.51-21.82 26.98-24.67L26.98-24.67L26.98-24.67Q29.44-27.52 29.44-33.09L29.44-33.09L29.44-33.09Q29.44-38.66 23.94-38.66L23.94-38.66L22.40-38.66L22.40-38.66Q22.02-38.66 21.70-38.59L21.70-38.59L14.34 0L0.45 0L8.32-41.92L8.32-41.92Q15.17-42.56 19.14-42.62L19.14-42.62L19.14-42.62Q23.10-42.69 26.11-42.69ZM44.90-1.92L44.90-1.92L44.90-1.92Q43.39-3.58 42.72-6.21L42.72-6.21L42.72-6.21Q42.05-8.83 42.05-13.12L42.05-13.12L42.05-13.12Q42.05-17.41 43.52-21.31L43.52-21.31L43.52-21.31Q44.99-25.22 47.68-28.03L47.68-28.03L47.68-28.03Q53.18-33.92 62.27-33.92L62.27-33.92L62.27-33.92Q65.54-33.92 67.90-32.83L67.90-32.83L78.85-33.92L74.11-8.96L74.11-8.96Q73.92-8.19 73.92-6.78L73.92-6.78L73.92-6.78Q73.92-5.38 74.78-4.48L74.78-4.48L74.78-4.48Q75.65-3.58 76.93-3.46L76.93-3.46L76.93-3.46Q76.29-1.28 73.95 0L73.95 0L73.95 0Q71.62 1.28 68.99 1.28L68.99 1.28L68.99 1.28Q66.37 1.28 64.61 0.29L64.61 0.29L64.61 0.29Q62.85-0.70 62.34-2.37L62.34-2.37L62.34-2.37Q61.31-0.77 59.14 0.26L59.14 0.26L59.14 0.26Q56.96 1.28 54.05 1.28L54.05 1.28L54.05 1.28Q51.14 1.28 48.77 0.51L48.77 0.51L48.77 0.51Q46.40-0.26 44.90-1.92ZM58.40-27.90L58.40-27.90L58.40-27.90Q57.66-26.75 57.02-24.80L57.02-24.80L57.02-24.80Q56.38-22.85 55.33-17.63L55.33-17.63L55.33-17.63Q54.27-12.42 54.27-8.70L54.27-8.70L54.27-8.70Q54.27-4.99 54.85-3.90L54.85-3.90L54.85-3.90Q55.42-2.82 56.45-2.82L56.45-2.82L56.45-2.82Q58.50-2.82 60-4.77L60-4.77L60-4.77Q61.50-6.72 62.08-10.18L62.08-10.18L65.47-28.93L65.47-28.93Q64.13-30.08 62.56-30.08L62.56-30.08L62.56-30.08Q60.99-30.08 60.06-29.57L60.06-29.57L60.06-29.57Q59.14-29.06 58.40-27.90ZM101.44-22.46L101.44-22.46L101.44-22.46Q102.34-24.83 102.34-26.88L102.34-26.88L102.34-26.88Q102.34-30.66 99.26-30.66L99.26-30.66L99.26-30.66Q97.66-30.66 96.35-29.22L96.35-29.22L96.35-29.22Q95.04-27.78 95.04-25.98L95.04-25.98L95.04-25.98Q95.04-24.70 96.06-23.68L96.06-23.68L96.06-23.68Q97.54-22.27 101.31-19.97L101.31-19.97L101.31-19.97Q105.09-17.66 106.53-15.78L106.53-15.78L106.53-15.78Q107.97-13.89 107.97-11.30L107.97-11.30L107.97-11.30Q107.97-8.70 106.72-6.34L106.72-6.34L106.72-6.34Q105.47-3.97 103.23-2.30L103.23-2.30L103.23-2.30Q98.43 1.28 90.75 1.28L90.75 1.28L90.75 1.28Q86.59 1.28 83.39-0.90L83.39-0.90L83.39-0.90Q80.19-3.01 80.19-5.50L80.19-5.50L80.19-5.50Q80.19-8 82.02-9.47L82.02-9.47L82.02-9.47Q83.84-10.94 86.53-10.94L86.53-10.94L86.53-10.94Q89.22-10.94 90.88-9.92L90.88-9.92L90.88-9.92Q90.05-7.81 90.05-6.40L90.05-6.40L90.05-6.40Q90.05-2.18 93.63-2.18L93.63-2.18L93.63-2.18Q95.17-2.18 96.19-3.14L96.19-3.14L96.19-3.14Q97.22-4.10 97.22-5.76L97.22-5.76L97.22-5.76Q97.22-9.02 91.71-12.48L91.71-12.48L91.71-12.48Q87.23-15.42 86.21-16.58L86.21-16.58L86.21-16.58Q84.48-18.62 84.48-21.18L84.48-21.18L84.48-21.18Q84.48-23.74 85.70-26.18L85.70-26.18L85.70-26.18Q86.91-28.61 89.15-30.34L89.15-30.34L89.15-30.34Q93.82-33.92 101.95-33.92L101.95-33.92L101.95-33.92Q106.11-33.92 108.58-32.26L108.58-32.26L108.58-32.26Q111.04-30.59 111.04-27.78L111.04-27.78L111.04-27.78Q111.04-24.96 109.34-23.36L109.34-23.36L109.34-23.36Q107.65-21.76 104.58-21.76L104.58-21.76L104.58-21.76Q102.46-21.76 101.44-22.46ZM116.19-1.92L116.19-1.92L116.19-1.92Q114.69-3.58 114.02-6.21L114.02-6.21L114.02-6.21Q113.34-8.83 113.34-13.12L113.34-13.12L113.34-13.12Q113.34-17.41 114.82-21.31L114.82-21.31L114.82-21.31Q116.29-25.22 118.98-28.03L118.98-28.03L118.98-28.03Q124.48-33.92 133.57-33.92L133.57-33.92L133.57-33.92Q136.83-33.92 139.20-32.83L139.20-32.83L150.14-33.92L145.41-8.96L145.41-8.96Q145.22-8.19 145.22-6.78L145.22-6.78L145.22-6.78Q145.22-5.38 146.08-4.48L146.08-4.48L146.08-4.48Q146.94-3.58 148.22-3.46L148.22-3.46L148.22-3.46Q147.58-1.28 145.25 0L145.25 0L145.25 0Q142.91 1.28 140.29 1.28L140.29 1.28L140.29 1.28Q137.66 1.28 135.90 0.29L135.90 0.29L135.90 0.29Q134.14-0.70 133.63-2.37L133.63-2.37L133.63-2.37Q132.61-0.77 130.43 0.26L130.43 0.26L130.43 0.26Q128.26 1.28 125.34 1.28L125.34 1.28L125.34 1.28Q122.43 1.28 120.06 0.51L120.06 0.51L120.06 0.51Q117.70-0.26 116.19-1.92ZM129.70-27.90L129.70-27.90L129.70-27.90Q128.96-26.75 128.32-24.80L128.32-24.80L128.32-24.80Q127.68-22.85 126.62-17.63L126.62-17.63L126.62-17.63Q125.57-12.42 125.57-8.70L125.57-8.70L125.57-8.70Q125.57-4.99 126.14-3.90L126.14-3.90L126.14-3.90Q126.72-2.82 127.74-2.82L127.74-2.82L127.74-2.82Q129.79-2.82 131.30-4.77L131.30-4.77L131.30-4.77Q132.80-6.72 133.38-10.18L133.38-10.18L136.77-28.93L136.77-28.93Q135.42-30.08 133.86-30.08L133.86-30.08L133.86-30.08Q132.29-30.08 131.36-29.57L131.36-29.57L131.36-29.57Q130.43-29.06 129.70-27.90Z" fill="url(#editing-outline-gradient)"></path></g></g><style>text {
  font-size: 64px;
  font-family: Arial Black;
  dominant-baseline: central;
  text-anchor: middle;
}</style></svg>